<svg width="50" height="50" viewBox="0 0 50 50" fill="none" xmlns="http://www.w3.org/2000/svg">
<g clip-path="url(#clip0_739_139)">
<path d="M36.6946 32.3251C39.7205 28.196 41.0758 23.0766 40.4893 17.9912C39.9028 12.9057 37.4178 8.22925 33.5314 4.89735C29.645 1.56545 24.6438 -0.176169 19.5285 0.0209346C14.4131 0.218038 9.5608 2.33933 5.94232 5.96041C2.32383 9.58149 0.20601 14.4353 0.0125673 19.5508C-0.180876 24.6663 1.56432 29.6662 4.899 33.5502C8.23368 37.4342 12.9119 39.9159 17.9978 40.4988C23.0836 41.0816 28.202 39.7227 32.329 36.6938H32.3259C32.4196 36.8188 32.5196 36.9376 32.6321 37.0532L44.6634 49.0844C45.2493 49.6708 46.0442 50.0004 46.8732 50.0007C47.7022 50.001 48.4973 49.672 49.0837 49.086C49.67 48.5 49.9996 47.7051 49.9999 46.8762C50.0002 46.0472 49.6712 45.2521 49.0852 44.6657L37.054 32.6344C36.9423 32.5213 36.8221 32.42 36.6946 32.3251ZM37.5009 20.3126C37.5009 22.5697 37.0563 24.8047 36.1925 26.8899C35.3288 28.9752 34.0628 30.87 32.4668 32.466C30.8707 34.062 28.976 35.328 26.8907 36.1917C24.8054 37.0555 22.5704 37.5001 20.3134 37.5001C18.0563 37.5001 15.8213 37.0555 13.736 36.1917C11.6507 35.328 9.75596 34.062 8.15995 32.466C6.56395 30.87 5.29793 28.9752 4.43417 26.8899C3.57042 24.8047 3.12585 22.5697 3.12585 20.3126C3.12585 15.7542 4.93667 11.3825 8.15996 8.15917C11.3832 4.93589 15.7549 3.12507 20.3134 3.12507C24.8718 3.12507 29.2435 4.93589 32.4668 8.15917C35.69 11.3825 37.5009 15.7542 37.5009 20.3126Z" fill="black"/>
</g>
<defs>
<clipPath id="clip0_739_139">
<rect width="50" height="50" fill="white"/>
</clipPath>
</defs>
</svg>
